<svg width="86" height="86" viewBox="0 0 86 86" fill="none" xmlns="http://www.w3.org/2000/svg">
<path d="M19.9123 4.78879C18.184 7.50196 17.9715 10.6732 19.0354 13.4324C22.1186 13.0232 24.9872 11.3568 26.7155 8.64362C28.4438 5.93045 28.6564 2.75925 27.5924 0C24.5092 0.40921 21.6406 2.07562 19.9123 4.78879Z" fill="#305209"/>
<path d="M19.1881 18.1902C19.1606 18.1902 19.1338 18.1896 19.1063 18.1875C18.3477 18.1435 17.7693 17.4922 17.814 16.7343L17.8917 15.4062C17.8786 13.0081 16.6943 10.7983 14.7171 9.48954C14.0836 9.0707 13.9096 8.21652 14.3292 7.58379C14.7473 6.95038 15.6015 6.77638 16.2349 7.1959C18.9955 9.02187 20.6427 12.1057 20.6427 15.4454L20.6399 15.5259L20.5595 16.8952C20.5168 17.6263 19.9109 18.1902 19.1881 18.1902Z" fill="#63271D"/>
<path d="M31.9238 41.8386C31.3509 41.0883 30.8104 40.2279 30.3056 39.3042C27.906 34.9178 26.7437 29.9605 26.7403 24.9592L26.7396 24.323C26.7066 20.1663 23.3304 16.8149 19.1771 16.8149C15.0004 16.8149 11.6139 20.2034 11.6139 24.3835V24.9296C11.6139 30.9123 9.35744 36.611 5.53356 41.21C0.189069 47.6384 0.000626788 56.3996 0.000626788 56.3996C-0.062646 66.4029 4.67525 73.6676 9.34231 78.3904C14.2707 83.3772 22.3146 83.4027 27.3132 78.4866C32.1123 73.7666 37.0194 66.471 36.9554 56.3996C36.9554 56.3996 36.7786 48.1941 31.9238 41.8386Z" fill="#40B74B"/>
<path d="M18.5808 78.3904C13.9138 73.6676 9.17587 66.4029 9.23915 56.3996C9.23915 56.3996 9.42759 47.6384 14.7721 41.21C18.596 36.611 20.8525 30.9123 20.8525 24.9296V24.3835C20.8525 21.9462 22.0086 19.7839 23.7967 18.3995C22.5175 17.4091 20.9178 16.8149 19.1771 16.8149C15.0004 16.8149 11.6139 20.2034 11.6139 24.3835V24.9296C11.6139 30.9123 9.35744 36.611 5.53356 41.21C0.189069 47.6384 0.000626788 56.3996 0.000626788 56.3996C-0.062646 66.4029 4.67525 73.6676 9.34231 78.3904C13.0128 82.1042 18.4096 83.0622 22.9907 81.281C21.3813 80.6551 19.8724 79.6978 18.5808 78.3904Z" fill="#40B74B"/>
<path d="M15.0272 78.3902C10.3602 73.6675 5.62228 66.4028 5.68555 56.3995C5.68555 56.3995 5.874 47.6383 11.2185 41.2099C15.0424 36.6109 17.2989 30.9122 17.2989 24.9295V24.3834C17.2989 21.2102 19.2528 18.497 22.0203 17.3719C21.142 17.0149 20.1826 16.8141 19.1771 16.8141C15.0004 16.8141 11.6139 20.2026 11.6139 24.3828V24.9288C11.6139 30.9115 9.35744 36.6102 5.53356 41.2092C0.189069 47.6376 0.000626788 56.3988 0.000626788 56.3988C-0.062646 66.4021 4.67525 73.6668 9.34231 78.3896C12.5445 81.6295 17.0588 82.7616 21.2018 81.818C18.9343 81.3008 16.7824 80.166 15.0272 78.3902Z" fill="#2DA638"/>
<path d="M9.71027 69.4832C9.34577 69.4832 8.99502 69.3381 8.74055 69.0768C8.67109 69.0149 8.61675 68.9468 8.56173 68.8704C8.51359 68.7955 8.47164 68.7129 8.43725 68.6297C8.40287 68.5541 8.37535 68.4647 8.36229 68.3753C8.34166 68.2858 8.33478 68.1964 8.33478 68.107C8.33478 68.0169 8.34166 67.9275 8.36229 67.8381C8.38223 67.7487 8.40355 67.6593 8.43725 67.5768C8.47095 67.4943 8.5129 67.4193 8.56792 67.3429C8.61607 67.2673 8.6704 67.1985 8.73986 67.1366C8.80176 67.0672 8.86985 67.0121 8.94619 66.9647C9.02184 66.9097 9.09749 66.8677 9.18002 66.834C9.26943 66.7996 9.35196 66.7721 9.44136 66.7584C9.8884 66.669 10.3629 66.8134 10.68 67.1373C10.7488 67.1992 10.8038 67.2673 10.8519 67.3436C10.8994 67.4193 10.9482 67.4949 10.9819 67.5775C11.0156 67.66 11.0369 67.7494 11.0576 67.8388C11.0775 67.9282 11.0851 68.0176 11.0851 68.1077C11.0851 68.1971 11.0775 68.2865 11.0576 68.3759C11.0431 68.4654 11.0156 68.5548 10.9819 68.6304C10.9475 68.7129 10.9063 68.7955 10.8519 68.8711C10.8038 68.9468 10.7488 69.0156 10.68 69.0774C10.6174 69.1469 10.5493 69.2019 10.473 69.2494C10.398 69.3044 10.3217 69.3464 10.2392 69.3801C10.1566 69.4138 10.0672 69.442 9.97781 69.4557C9.88909 69.4763 9.79968 69.4832 9.71027 69.4832Z" fill="#C0F9C0"/>
<path d="M7.30587 65.3739C6.69309 65.3739 6.13463 64.9626 5.97439 64.3423C5.31346 61.7825 4.98678 59.1078 5.00466 56.3905C5.00948 56.1698 5.13465 51.4112 7.32444 46.2256C7.62017 45.5255 8.42759 45.1981 9.12703 45.4939C9.82715 45.7896 10.1545 46.597 9.85879 47.2964C7.8712 52.002 7.75566 56.3857 7.75497 56.4291C7.73915 58.8871 8.03626 61.3251 8.63735 63.6545C8.82717 64.3897 8.38495 65.1401 7.64906 65.3306C7.53489 65.3595 7.41935 65.3739 7.30587 65.3739Z" fill="#C0F9C0"/>
<path d="M44.9973 80.2444C44.2476 79.6708 43.388 79.1302 42.465 78.6248C38.082 76.2231 33.9163 74.0911 28.131 75.0567L27.4955 74.3456C24.4824 73.3807 21.9233 71.6028 20.7033 67.4874C19.9928 62.4799 23.3786 59.9187 27.5553 59.9187H28.1007C34.0786 59.9187 39.7732 57.6601 44.3687 53.8335C50.7923 48.4849 59.5466 48.2964 59.5466 48.2964C69.5416 48.2332 76.8015 52.9745 81.5201 57.6457C86.5036 62.5782 86.529 70.6276 81.6164 75.6303C76.9005 80.4335 69.6097 85.3441 59.5466 85.2801C59.5466 85.2801 51.348 85.1033 44.9973 80.2444Z" fill="#F3DA78"/>
<path d="M61.149 71.9591C67.3027 71.9591 72.2913 68.6893 72.2913 64.6559C72.2913 60.6224 67.3027 57.3527 61.149 57.3527C54.9954 57.3527 50.0068 60.6224 50.0068 64.6559C50.0068 68.6893 54.9954 71.9591 61.149 71.9591Z" fill="#BC441C"/>
<path d="M82.3275 72.0767C77.611 76.8799 70.3208 81.7904 60.2577 81.7265C60.2577 81.7265 52.0584 81.5497 45.7077 76.6908C44.9581 76.1172 44.0984 75.5766 43.1754 75.0711C38.7924 72.6695 33.8385 71.5065 28.8414 71.5031L28.2059 71.5024C24.164 71.4701 20.8931 68.2673 20.7197 64.2646C20.2583 65.2432 19.9928 66.3326 19.9928 67.4867C19.9928 71.6434 23.3421 75.0223 27.4954 75.0553L28.1309 75.056C33.1281 75.0595 38.0813 76.2231 42.465 78.624C43.3879 79.1295 44.2476 79.6701 44.9973 80.2437C51.3479 85.1026 59.5473 85.2794 59.5473 85.2794C69.6111 85.3433 76.9012 80.4321 81.6171 75.6296C83.8798 73.325 85.0813 70.3738 85.247 67.3794C84.6432 69.0891 83.6797 70.7005 82.3275 72.0767Z" fill="#2DA638"/>
</svg>
