<svg width="70" height="75" viewBox="0 -19 100 100" fill="none" xmlns="http://www.w3.org/2000/svg">
<path d="M99.7726 2.91572C98.8605 0.176203 95.3492 -0.94799 93.092 0.926204C56.7629 31.0924 33.4516 14.8415 20.0976 8.79153C17.2565 7.50443 13.971 7.22621 11.3718 8.95524C11.2524 9.03427 11.1339 9.12782 11.0153 9.22137L4.60081 4.36734L0 9.35605L6.47823 16.2601C6.25565 16.8972 6.10081 17.4778 6.03791 17.948C5.66371 20.7609 7.88871 24.1044 10.3863 26.1827C58.4847 66.2101 98.3105 26.3173 99.892 6.89717C99.9831 5.77379 100.128 3.98427 99.7726 2.91572Z" fill="#F4C435"/>
<path d="M6.47822 16.2601C6.25564 16.8972 6.1008 17.4778 6.0379 17.948C5.6637 20.7609 7.88871 24.1045 10.3863 26.1827C58.4847 66.2101 98.3105 26.3174 99.892 6.89718C99.9831 5.7738 100.128 3.98428 99.7726 2.91654C99.4525 1.95525 98.8089 1.19799 98.0154 0.694763C89.4323 20.9053 51.7823 47.4206 8.98306 11.8036" fill="#F1BC02"/>
<path d="M11.0153 9.22137C8.34194 7.19798 8.34194 7.19799 6.00242 5.42782L4.60081 4.36734L0 9.35605L6.47823 16.2601" fill="#C8C625"/>
<path d="M6.47822 16.2601C6.25564 16.8972 6.1008 17.4778 6.0379 17.948C5.6637 20.7609 7.88871 24.1045 10.3863 26.1827C58.4847 66.2101 98.3105 26.3174 99.892 6.89719C99.9831 5.77381 100.128 3.98429 99.7726 2.91655C99.7162 2.74719 99.6493 2.58348 99.5743 2.42703C95.463 22.4383 56.775 58.1698 10.3863 19.5658C9.21935 18.5948 7.89435 16.8496 7.08306 15.5093" fill="#F0B102"/>
<path d="M95.0024 0.05688C95.0105 0.852848 95.3662 1.7214 96.0645 2.41414C97.2065 3.5472 98.8178 3.79237 99.8049 3.04156C99.7928 3.00043 99.7855 2.95446 99.7726 2.91575C99.0936 0.876235 96.9734 -0.265701 95.0024 0.05688Z" fill="#2C441F"/>
<path d="M77.4896 64.5165C87.1546 64.5165 94.9896 56.6772 94.9896 47.0069C94.9896 37.3365 87.1546 29.4972 77.4896 29.4972C67.8246 29.4972 59.9896 37.3365 59.9896 47.0069C59.9896 56.6772 67.8246 64.5165 77.4896 64.5165Z" fill="#F1E6BF"/>
<path d="M77.4896 62.0351C68.2436 62.0351 60.6904 54.8552 60.0525 45.7657C60.0234 46.177 59.9896 46.5875 59.9896 47.006C59.9896 56.6762 67.8242 64.5157 77.4896 64.5157C87.1549 64.5157 94.9896 56.6762 94.9896 47.006C94.9896 46.5875 94.9557 46.177 94.9267 45.7657C94.288 54.8552 86.7355 62.0351 77.4896 62.0351Z" fill="#F2BE2E"/>
<path d="M77.6622 40.0617C76.7718 40.0617 76.0493 39.3391 76.0493 38.4488V36.5109C76.0493 35.6206 76.7718 34.898 77.6622 34.898C78.5525 34.898 79.2751 35.6206 79.2751 36.5109V38.4488C79.2751 39.3391 78.5533 40.0617 77.6622 40.0617Z" fill="#BF8F33"/>
<path d="M70.8831 43.7771C70.6097 43.7771 70.3323 43.7077 70.0783 43.5609L68.4008 42.5924C67.6291 42.1464 67.3654 41.1601 67.8105 40.3892C68.2565 39.6174 69.2412 39.3537 70.0137 39.7988L71.6912 40.7674C72.4629 41.2133 72.7266 42.1996 72.2815 42.9706C71.9823 43.4883 71.4404 43.7771 70.8831 43.7771Z" fill="#BF8F33"/>
<path d="M69.0355 52.4771C68.4783 52.4771 67.9363 52.1883 67.638 51.6714C67.192 50.8996 67.4557 49.9133 68.2267 49.4682L69.9041 48.4988C70.6775 48.0529 71.6621 48.3174 72.1073 49.0875C72.5533 49.8593 72.2896 50.8456 71.5186 51.2908L69.8412 52.2601C69.5871 52.4077 69.3097 52.4771 69.0355 52.4771Z" fill="#BF8F33"/>
<path d="M77.317 57.4609C76.4267 57.4609 75.7041 56.7383 75.7041 55.848V53.9101C75.7041 53.0198 76.4267 52.2972 77.317 52.2972C78.2073 52.2972 78.9299 53.0198 78.9299 53.9101V55.848C78.9299 56.7383 78.2073 57.4609 77.317 57.4609Z" fill="#BF8F33"/>
<path d="M85.7702 52.7762C85.4968 52.7762 85.2194 52.7069 84.9653 52.5601L83.2879 51.5916C82.5162 51.1456 82.2524 50.1593 82.6976 49.3883C83.1436 48.6165 84.1291 48.3528 84.9008 48.798L86.5783 49.7666C87.35 50.2125 87.6137 51.1988 87.1686 51.9698C86.8694 52.4875 86.3274 52.7762 85.7702 52.7762Z" fill="#BF8F33"/>
<path d="M84.2687 44.0763C83.7114 44.0763 83.1695 43.7875 82.8703 43.2698C82.4251 42.4988 82.6888 41.5117 83.4606 41.0666L85.138 40.098C85.9098 39.6529 86.8953 39.9174 87.3412 40.6884C87.7864 41.4593 87.5227 42.4464 86.7509 42.8916L85.0735 43.8601C84.8195 44.0069 84.5428 44.0763 84.2687 44.0763Z" fill="#BF8F33"/>
</svg>
