<?xml version="1.0" encoding="iso-8859-1"?>
<!-- Uploaded to: SVG Repo, www.svgrepo.com, Generator: SVG Repo Mixer Tools -->
<svg height="800px" width="800px" version="1.1" id="Layer_1" xmlns="http://www.w3.org/2000/svg" xmlns:xlink="http://www.w3.org/1999/xlink" 
	 viewBox="0 0 512 512" xml:space="preserve">
<path style="fill:#FF0536;" d="M325.161,438.299c-3.613-8.592-7.349-17.477-7.349-26.391c0-41.54,2.274-72.387,6.406-86.852
	c0-0.001,0-0.002,0.001-0.003c6.564-22.97,8.891-48.257,8.891-96.634c0-32.49-4.724-43.871-14.549-64.546
	c-4.379-9.227-9.829-20.71-16.016-37.966c-11.613-32.398-14.45-67.096-15.002-87.622c0.003-0.006,0.006-0.013,0.009-0.019
	c2.019-3.889,3.13-8.472,3.13-13.296c0-14.235-9.128-24.97-21.236-24.97H256h-13.449c-12.107,0-21.238,10.735-21.238,24.972
	c0,4.821,1.113,9.405,3.133,13.296c-0.546,20.519-3.379,55.218-15.003,87.646c-6.18,17.235-11.626,28.712-16.02,37.967
	c-9.82,20.676-14.539,32.057-14.539,64.539c0,48.37,2.327,73.658,8.891,96.634c4.13,14.466,6.406,45.312,6.406,86.855
	c0,8.922-3.734,17.801-7.35,26.396c-3.907,9.299-7.947,18.916-7.947,29.418c0,21.383,11.197,44.277,27.864,44.277h49.252h49.252
	c16.667,0,27.864-22.894,27.864-44.277C333.117,457.207,329.071,447.594,325.161,438.299z"/>
<path style="fill:#57555C;" d="M290.683,24.972C290.683,10.735,281.555,0,269.448,0h-26.896c-12.107,0-21.238,10.735-21.238,24.972
	c0,4.821,1.112,9.405,3.133,13.296h63.106C289.572,34.379,290.683,29.795,290.683,24.972z"/>
<path style="fill:#ECF0F1;" d="M333.111,228.42H178.883c0,48.37,2.327,73.658,8.891,96.634h136.445
	C330.783,302.084,333.111,276.796,333.111,228.42z"/>
<path style="opacity:0.15;enable-background:new    ;" d="M325.161,438.299c-3.613-8.592-7.349-17.477-7.349-26.391
	c0-41.54,2.274-72.387,6.406-86.852c0-0.001,0-0.002,0.001-0.003c6.564-22.97,8.891-48.257,8.891-96.634
	c0-32.49-4.724-43.871-14.549-64.546c-4.379-9.227-9.829-20.71-16.016-37.966c-11.613-32.398-14.45-67.096-15.001-87.622
	c0.003-0.006,0.006-0.013,0.009-0.019c2.019-3.889,3.13-8.472,3.13-13.296C290.683,10.735,281.555,0,269.448,0H256v512h49.252
	c16.667,0,27.864-22.894,27.864-44.277C333.117,457.207,329.071,447.594,325.161,438.299z"/>
</svg>