<svg width="117" height="117" viewBox="0 0 117 117" fill="none" xmlns="http://www.w3.org/2000/svg">
<path d="M47.882 104.752C73.8519 104.752 94.9047 81.4948 94.9047 52.8057C94.9047 24.1165 73.8519 0.859375 47.882 0.859375C21.9121 0.859375 0.859375 24.1165 0.859375 52.8057C0.859375 81.4948 21.9121 104.752 47.882 104.752Z" fill="#14581E"/>
<path d="M23.4108 52.8057C23.4108 30.6968 30.2607 8.35823 47.882 0.859375C21.9121 0.859375 0.859375 24.1164 0.859375 52.8057C0.859375 81.4949 21.9121 104.752 47.882 104.752C31.9658 96.4275 23.4108 73.5526 23.4108 52.8057Z" fill="#14581E"/>
<path d="M72.3533 52.8057C72.3533 30.6019 65.6224 8.29223 47.8821 0.859375C30.2608 8.35823 23.4108 30.6968 23.4108 52.8057C23.4108 73.5526 31.9649 96.4275 47.8821 104.752C64.7596 96.8663 72.3533 74.3233 72.3533 52.8057Z" fill="#3D7712"/>
<path d="M47.882 0.859375C47.2378 0.859375 46.5991 0.884477 45.9604 0.913297V104.699C46.5982 104.728 47.2378 104.753 47.882 104.753C48.5263 104.753 49.165 104.728 49.8037 104.699V0.913297C49.1659 0.884477 48.5263 0.859375 47.882 0.859375Z" fill="#9BC148"/>
<path d="M10.9307 62.0161C10.0093 62.0161 9.20888 61.3318 9.08895 60.3938C8.76914 57.9013 8.60645 55.3483 8.60645 52.8057C8.60645 41.4486 11.7823 30.5898 17.789 21.4027C18.3514 20.5436 19.5033 20.3028 20.3633 20.8644C21.2223 21.4259 21.464 22.5787 20.9016 23.4387C15.2909 32.0188 12.3252 42.1747 12.3252 52.8066C12.3252 55.1912 12.4777 57.5842 12.777 59.9206C12.9081 60.9395 12.1876 61.871 11.1696 62.0021C11.0896 62.0105 11.0097 62.0161 10.9307 62.0161Z" fill="#9BC148"/>
<path d="M86.1284 62.0161C86.0494 62.0161 85.9704 62.0114 85.8895 62.0012C84.8706 61.8701 84.151 60.9386 84.2821 59.9206C84.5824 57.5805 84.7339 55.1875 84.7339 52.8066C84.7339 42.1737 81.7682 32.0188 76.1575 23.4387C75.596 22.5787 75.8368 21.4268 76.6958 20.8644C77.5558 20.3019 78.7077 20.5427 79.2701 21.4027C85.2778 30.5898 88.4527 41.4486 88.4527 52.8057C88.4527 55.3437 88.2909 57.8966 87.9701 60.3928C87.8502 61.3309 87.0498 62.0161 86.1284 62.0161Z" fill="#9BC148"/>
<path d="M23.9128 91.1292C30.9218 106.008 50.9398 116.129 70.0402 116.141C89.7505 116.152 109.55 106.812 116.14 91.1804L23.9128 91.1292Z" fill="#E22434"/>
<path d="M70.0356 103.851C69.0092 103.851 68.1762 103.019 68.1762 101.993L68.1725 95.8232C68.1725 94.7969 69.0036 93.9639 70.0309 93.9629C71.0573 93.9629 71.8912 94.795 71.8912 95.8214L71.895 101.991C71.895 103.018 71.0638 103.851 70.0356 103.851Z" fill="#191200"/>
<path d="M58.6413 103.845C57.615 103.845 56.782 103.013 56.782 101.986L56.7792 95.8167C56.7792 94.7904 57.6112 93.9574 58.6376 93.9564C59.664 93.9564 60.4979 94.7885 60.4979 95.8149L60.5007 101.984C60.5016 103.012 59.6696 103.845 58.6413 103.845C58.6423 103.845 58.6423 103.845 58.6413 103.845Z" fill="#191200"/>
<path d="M81.4289 103.858C80.4025 103.858 79.5695 103.026 79.5695 101.999L79.5658 95.8298C79.5658 94.8034 80.3969 93.9704 81.4242 93.9695C82.4506 93.9695 83.2845 94.8015 83.2845 95.8279L83.2883 101.997C83.2883 103.025 82.4571 103.858 81.4289 103.858Z" fill="#191200"/>
<path d="M47.247 101.559C46.2207 101.559 45.3877 100.727 45.3877 99.701L45.3858 95.8102C45.3858 94.7839 46.2169 93.9509 47.2442 93.9499C48.2706 93.9499 49.1046 94.782 49.1046 95.8084L49.1064 99.6991C49.1073 100.726 48.2753 101.559 47.247 101.559C47.248 101.559 47.248 101.559 47.247 101.559Z" fill="#191200"/>
<path d="M92.8203 101.585C91.794 101.585 90.961 100.753 90.961 99.727L90.9591 95.8363C90.9591 94.8099 91.7902 93.9769 92.8176 93.976C93.8439 93.976 94.6779 94.808 94.6779 95.8344L94.6797 99.7251C94.6806 100.752 93.8486 101.585 92.8203 101.585C92.8213 101.585 92.8213 101.585 92.8203 101.585Z" fill="#191200"/>
<path d="M70.0413 110.377C53.5272 110.367 36.3345 102.796 27.4495 91.1311L23.9139 91.1292C30.9228 106.008 50.9408 116.129 70.0413 116.141C89.7516 116.152 109.551 106.812 116.141 91.1804L112.93 91.1785C104.405 103.314 87.1912 110.386 70.0413 110.377Z" fill="#C6DD9E"/>
<path d="M70.0413 113.259C52.2024 113.248 33.5659 104.417 25.472 91.1302L23.9139 91.1292C30.9228 106.008 50.9408 116.129 70.0413 116.141C89.7516 116.152 109.551 106.812 116.141 91.1804L114.739 91.1794C107.053 105.07 88.5086 113.269 70.0413 113.259Z" fill="#3D7712"/>
</svg>
